<svg width="19" height="19" viewBox="0 0 19 19" fill="none" xmlns="http://www.w3.org/2000/svg">
<path d="M9.49977 19C7.30186 19 5.17191 18.2379 3.47291 16.8436C1.77392 15.4492 0.611139 13.5089 0.182383 11.3532C-0.246373 9.19754 0.0857019 6.95984 1.12184 5.02149C2.15797 3.08314 3.83388 1.56406 5.86451 0.723029C7.89514 -0.118003 10.1548 -0.228925 12.2581 0.409186C14.3613 1.0473 16.1782 2.39492 17.3992 4.22248C18.6202 6.05004 19.1694 8.24446 18.9539 10.4318C18.7383 12.6191 17.7713 14.6639 16.2171 16.218C15.337 17.1028 14.29 17.8043 13.137 18.2819C11.984 18.7594 10.7477 19.0035 9.49977 19V19ZM9.49977 1.70997C7.95909 1.71016 6.45306 2.16723 5.17213 3.02332C3.8912 3.87942 2.89293 5.09614 2.30348 6.5196C1.71402 7.94305 1.55991 9.50928 1.86061 11.0203C2.1613 12.5314 2.90344 13.9194 3.99293 15.0087C5.08242 16.0981 6.47061 16.8399 7.9817 17.1404C9.49278 17.4409 11.0588 17.2865 12.4822 16.6969C13.9056 16.1073 15.1223 15.1088 15.9783 13.8278C16.8342 12.5467 17.2908 11.0407 17.2908 9.50001C17.2881 7.43461 16.4667 5.45457 15.0061 3.99421C13.5456 2.53384 11.5652 1.71235 9.49977 1.70997Z" fill="#0081C5"/>
<path d="M9.5 14.812C9.27324 14.812 9.05585 14.7219 8.89551 14.5615C8.73516 14.4012 8.64502 14.1837 8.64502 13.957V7.67395C8.64502 7.44719 8.73516 7.22974 8.89551 7.0694C9.05585 6.90905 9.27324 6.81897 9.5 6.81897C9.72676 6.81897 9.94415 6.90905 10.1045 7.0694C10.2648 7.22974 10.355 7.44719 10.355 7.67395V13.957C10.3547 14.1836 10.2648 14.401 10.1045 14.5613C9.94421 14.7216 9.72668 14.8117 9.5 14.812Z" fill="#0081C5"/>
<path d="M9.50085 6.039C9.36393 6.03913 9.22847 6.01233 9.10193 5.96002C8.97539 5.90772 8.86041 5.83096 8.76355 5.73419C8.66669 5.63742 8.5899 5.52248 8.53748 5.396C8.48505 5.26951 8.45789 5.13393 8.45789 4.99701V4.91705C8.45789 4.6407 8.56765 4.37565 8.76306 4.18024C8.95847 3.98482 9.22352 3.875 9.49988 3.875C9.77623 3.875 10.0413 3.98482 10.2367 4.18024C10.4321 4.37565 10.5419 4.6407 10.5419 4.91705V4.99701C10.542 5.1338 10.5155 5.26928 10.4633 5.39569C10.411 5.52211 10.3343 5.63699 10.2377 5.73376C10.141 5.83054 10.0261 5.90734 9.89978 5.95972C9.77342 6.01209 9.63764 6.039 9.50085 6.039Z" fill="#0081C5"/>
</svg>
