<svg xmlns="http://www.w3.org/2000/svg" width="19" height="19" viewBox="0 0 19 19">
  <g id="sobre" transform="translate(-5190.629 -531.14)">
    <g id="Grupo_2175" data-name="Grupo 2175" transform="translate(5190.629 531.14)">
      <path id="Caminho_2414" data-name="Caminho 2414" d="M5200.129,550.14a9.5,9.5,0,1,1,6.717-2.782A9.436,9.436,0,0,1,5200.129,550.14Zm0-17.29a7.79,7.79,0,1,0,7.791,7.79A7.8,7.8,0,0,0,5200.129,532.85Z" transform="translate(-5190.629 -531.14)" fill="#0081c5"/>
    </g>
    <g id="Grupo_2176" data-name="Grupo 2176" transform="translate(5199.274 537.96)">
      <path id="Caminho_2415" data-name="Caminho 2415" d="M5393.734,698.673a.855.855,0,0,1-.855-.855v-6.283a.855.855,0,0,1,1.71,0v6.283A.856.856,0,0,1,5393.734,698.673Z" transform="translate(-5392.879 -690.681)" fill="#0081c5"/>
    </g>
    <g id="Grupo_2177" data-name="Grupo 2177" transform="translate(5199.087 535.015)">
      <path id="Caminho_2416" data-name="Caminho 2416" d="M5389.547,623.962a1.042,1.042,0,0,1-1.043-1.042v-.08a1.042,1.042,0,0,1,2.084,0v.08A1.041,1.041,0,0,1,5389.547,623.962Z" transform="translate(-5388.504 -621.798)" fill="#0081c5"/>
    </g>
  </g>
</svg>
