<svg width="1366" height="226" viewBox="0 0 1366 226" fill="none" xmlns="http://www.w3.org/2000/svg">
<g clip-path="url(#clip0_13:4)">
<path d="M1366 -323.07V92.823C1304.83 169.924 1202.7 220.928 1087.1 221.518C991.063 222.008 904.183 188.04 841.889 133.031C791.102 88.1851 721.519 63.1353 649.06 63.1353H-151.778V-323.07H1366Z" fill="#ECECEC"/>
<path d="M1084.13 130.095C958.39 130.095 856.46 28.6508 856.46 -96.4873C856.46 -221.625 958.39 -323.07 1084.13 -323.07C1209.86 -323.07 1311.79 -221.625 1311.79 -96.4873C1311.79 28.6508 1209.86 130.095 1084.13 130.095Z" fill="#F7BC15"/>
</g>
<defs>
<clipPath id="clip0_13:4">
<rect width="1366" height="225.498" fill="white" transform="matrix(-1 0 0 1 1366 0)"/>
</clipPath>
</defs>
</svg>
