<svg id="certificacoes" xmlns="http://www.w3.org/2000/svg" width="24.203" height="19" viewBox="0 0 24.203 19">
  <path id="Caminho_2404" data-name="Caminho 2404" d="M3542.437,1148.087c-.569.306-1.1.583-1.62.882-.07.04-.1.194-.1.3-.006,1.935-.013,3.87,0,5.805a1.21,1.21,0,0,1-.481,1.025,11.279,11.279,0,0,1-4.68,2.237,14.626,14.626,0,0,1-9.05-.68,10.332,10.332,0,0,1-2.609-1.556,1.212,1.212,0,0,1-.48-1.025c.016-1.935,0-3.87.011-5.805a.36.36,0,0,0-.223-.374c-.884-.464-1.757-.946-2.64-1.411a.892.892,0,0,1,0-1.682q5.477-2.94,10.947-5.895a1.074,1.074,0,0,1,1.118,0q5.457,2.95,10.924,5.88a1.055,1.055,0,0,1,.62,1.036c-.015,1.647,0,3.294-.007,4.941a.866.866,0,1,1-1.729,0c0-1.161,0-2.322,0-3.483Zm-19.767-1.455c.079.051.108.073.139.09q4.548,2.448,9.1,4.888a.447.447,0,0,0,.361-.018q4.505-2.413,9-4.842a1.85,1.85,0,0,0,.167-.115.659.659,0,0,0-.065-.052q-4.57-2.462-9.145-4.916a.447.447,0,0,0-.361.019q-3.877,2.072-7.745,4.161C3523.65,1146.1,3523.179,1146.356,3522.67,1146.632Zm2.481,3.315c0,1.646,0,3.23.007,4.814a.39.39,0,0,0,.166.244,9.369,9.369,0,0,0,2.682,1.361,12.927,12.927,0,0,0,5.863.521,10.774,10.774,0,0,0,4.921-1.86.4.4,0,0,0,.194-.374c-.008-1.476,0-2.953,0-4.429,0-.076-.007-.152-.013-.261-.125.063-.219.109-.312.159q-3.028,1.63-6.055,3.263a1.028,1.028,0,0,1-1.071,0c-1.594-.87-3.2-1.726-4.795-2.587Z" transform="translate(-3519.969 -1139.746)" fill="#0081c5"/>
</svg>
