<svg width="25" height="19" viewBox="0 0 25 19" fill="none" xmlns="http://www.w3.org/2000/svg">
<path d="M22.46 8.33341C21.8912 8.63932 21.3602 8.91619 20.8404 9.2151C20.7704 9.25509 20.7405 9.40909 20.7405 9.51506C20.7345 11.4495 20.7275 13.3838 20.7405 15.3182C20.75 15.5153 20.7111 15.7117 20.6273 15.8903C20.5435 16.0689 20.4174 16.2243 20.2597 16.3429C18.8951 17.4417 17.2931 18.2075 15.581 18.5793C12.5694 19.3178 9.40129 19.0797 6.53391 17.8995C5.59261 17.5123 4.71358 16.9881 3.92557 16.3439C3.76824 16.2251 3.64236 16.0696 3.55873 15.8911C3.47511 15.7125 3.4363 15.5162 3.44573 15.3192C3.46173 13.3848 3.44572 11.4504 3.45671 9.51603C3.46549 9.43792 3.4484 9.35901 3.40815 9.29149C3.36789 9.22398 3.30677 9.17155 3.23388 9.14212C2.35015 8.67826 1.47728 8.1964 0.594546 7.73154C0.420678 7.67008 0.270243 7.55628 0.163769 7.40571C0.0572947 7.25514 0 7.07527 0 6.89085C0 6.70644 0.0572947 6.52656 0.163769 6.37599C0.270243 6.22543 0.420678 6.11151 0.594546 6.05004C4.24477 4.09064 7.89269 2.12622 11.5382 0.156813C11.7066 0.0542001 11.9 0 12.0972 0C12.2943 0 12.4875 0.0542001 12.6558 0.156813C16.2927 2.12288 19.933 4.08229 23.5766 6.03503C23.7735 6.1235 23.9385 6.27023 24.0493 6.45544C24.1602 6.64064 24.2116 6.85542 24.1965 7.07073C24.1815 8.71723 24.1964 10.3638 24.1894 12.0103C24.1964 12.128 24.1792 12.246 24.1389 12.3568C24.0986 12.4677 24.0361 12.5693 23.9551 12.6551C23.8742 12.7409 23.7767 12.8093 23.6684 12.8561C23.56 12.9028 23.4432 12.927 23.3252 12.927C23.2072 12.927 23.0906 12.9028 22.9823 12.8561C22.874 12.8093 22.7762 12.7409 22.6953 12.6551C22.6143 12.5693 22.5518 12.4677 22.5115 12.3568C22.4712 12.246 22.454 12.128 22.461 12.0103C22.461 10.8496 22.461 9.68894 22.461 8.5283L22.46 8.33341ZM2.69889 6.87877C2.77786 6.92976 2.80702 6.95184 2.83801 6.96883C5.86909 8.60034 8.90135 10.2291 11.9351 11.8553C11.9932 11.8776 12.0553 11.8876 12.1174 11.8845C12.1796 11.8814 12.2405 11.8653 12.2961 11.8373C15.2985 10.2292 18.2976 8.61562 21.2933 6.99678C21.3511 6.96154 21.4068 6.92317 21.4603 6.88182C21.4397 6.86314 21.4181 6.84578 21.3954 6.82984C18.3496 5.189 15.3022 3.55082 12.2531 1.91531C12.195 1.89317 12.1327 1.88349 12.0706 1.88676C12.0084 1.89003 11.9477 1.90623 11.8921 1.93435C9.30826 3.31526 6.7275 4.70185 4.14962 6.0941C3.67876 6.34702 3.20773 6.60286 2.69889 6.87877ZM5.17909 10.1928C5.17909 11.8383 5.17917 13.4218 5.18617 15.0053C5.2074 15.1052 5.267 15.1928 5.35214 15.2493C6.16676 15.8442 7.07228 16.3036 8.03345 16.6098C9.92114 17.2319 11.9267 17.4101 13.8945 17.1307C15.6628 16.9269 17.3531 16.288 18.8141 15.2712C18.878 15.2331 18.93 15.1779 18.9642 15.1119C18.9985 15.0458 19.0136 14.9715 19.0079 14.8973C18.9999 13.4218 19.0079 11.9453 19.0079 10.4697C19.0079 10.3937 19.001 10.3178 18.995 10.2088C18.87 10.2718 18.776 10.3177 18.6831 10.3677C16.665 11.454 14.6473 12.5414 12.63 13.6298C12.4687 13.7282 12.2836 13.7802 12.0947 13.7802C11.9058 13.7802 11.7205 13.7282 11.5592 13.6298C9.96572 12.76 8.36029 11.9043 6.76577 11.0435L5.17909 10.1928Z" fill="#0081C5"/>
</svg>
