<svg width="16" height="12" viewBox="0 0 16 12" fill="none" xmlns="http://www.w3.org/2000/svg">
<path fill-rule="evenodd" clip-rule="evenodd" d="M0 0.961046V10.0212C0 10.5141 0.360769 10.9135 0.857802 10.9135H14.9977C15.4942 10.9135 15.8555 10.5094 15.8555 10.0212V0.961046C15.8555 0.420144 15.5324 0 14.9977 0H0.857802C0.302447 0 0 0.430468 0 0.961046ZM1.30374 1.75022C1.30374 1.53189 1.43588 1.40696 1.64697 1.40696C1.77755 1.40696 6.91561 4.66271 7.22683 4.85368L8.03097 5.35379C8.28593 5.18295 8.54194 5.03689 8.80619 4.85986C9.34555 4.51509 14.1445 1.40696 14.2767 1.40696C14.4883 1.40696 14.6199 1.53189 14.6199 1.75022C14.6199 1.98144 14.1745 2.2111 13.8844 2.38813C12.0619 3.49884 10.24 4.70965 8.43561 5.86165C8.33032 5.93288 8.12645 6.08518 7.97367 6.06196C7.80335 6.03564 2.57496 2.67662 1.62374 2.11713C1.48077 2.033 1.30374 1.95615 1.30374 1.75022Z" fill="#464646"/>
</svg>
