<svg xmlns="http://www.w3.org/2000/svg" width="29.546" height="15.591" viewBox="0 0 29.546 15.591">
  <g id="idiomas" transform="translate(-4881.542 -1123.465)">
    <path id="Caminho_2411" data-name="Caminho 2411" d="M4911.088,1131.891c-.134.607-.217,1.232-.41,1.82a7.728,7.728,0,0,1-7.3,5.329q-7.051.029-14.1,0a7.783,7.783,0,0,1-.746-15.525c.287-.028.575-.046.863-.046q6.921,0,13.843,0a7.782,7.782,0,0,1,7.708,6.306c.057.281.1.565.145.848Zm-16.81-6.693c.1.095.149.14.2.183a7.642,7.642,0,0,1,2.658,5.112c.059.583.033,1.178.137,1.751a6.081,6.081,0,1,0,5.991-7.044c-2.894-.008-5.788,0-8.681,0Zm4.075,12.117c-.1-.094-.147-.139-.2-.182a7.645,7.645,0,0,1-2.66-5.112c-.059-.582-.033-1.177-.137-1.75a6.081,6.081,0,1,0-5.935,7.043q3.836.005,7.672,0Z" fill="#0081c5"/>
    <path id="Caminho_2412" data-name="Caminho 2412" d="M5132.087,1183.358h-1.709v-1.724h1.7v-1.715h1.734v1.7h1.715v1.734h-1.674c-.11,1.1-.123,1.947,1.673,1.745v1.7a5.432,5.432,0,0,0-5.148,0v-1.715h.706a.893.893,0,0,0,1-1.015C5132.087,1183.846,5132.087,1183.617,5132.087,1183.358Z" transform="translate(-229.654 -52.102)" fill="#0081c5"/>
    <path id="Caminho_2413" data-name="Caminho 2413" d="M4954.086,1180.952h-1.719v-1.7h-1.721v1.7h-1.715a.923.923,0,0,1-.02-.138c0-1.413-.012-2.826,0-4.239a2.587,2.587,0,0,1,5.027-.805,2.621,2.621,0,0,1,.152.815c.016,1.4.008,2.806.008,4.21C4954.1,1180.844,4954.092,1180.891,4954.086,1180.952Zm-1.717-3.458c0-.322.011-.609,0-.895a.855.855,0,0,0-.782-.816.832.832,0,0,0-.919.687,7.6,7.6,0,0,0-.009,1.024Z" transform="translate(-62.171 -46.681)" fill="#0081c5"/>
  </g>
</svg>
