<svg width="41" height="19" viewBox="0 0 41 19" fill="none" xmlns="http://www.w3.org/2000/svg">
<path d="M40.0936 10.2672C39.9118 11.0072 39.7996 11.7692 39.5376 12.486C38.8543 14.3658 37.5293 16.0048 35.7512 17.1707C33.973 18.3367 31.8316 18.9705 29.6301 18.9823C23.2506 19.0059 16.8719 19.0059 10.4943 18.9823C7.79248 18.9667 5.20041 18.0216 3.25064 16.3415C1.30087 14.6615 0.14186 12.3741 0.0121819 9.94997C-0.117496 7.52584 0.792062 5.14926 2.55351 3.30901C4.31496 1.46875 6.7947 0.304745 9.48236 0.0564556C9.87186 0.022322 10.2624 0.000354029 10.6533 0.000354029C16.9152 0.000354029 23.1772 0.000354029 29.4399 0.000354029C31.909 -0.0187989 34.3079 0.739714 36.219 2.14412C38.1301 3.54852 39.4326 5.51007 39.9008 7.68776C39.9781 8.03031 40.0365 8.37655 40.0976 8.72154L40.0936 10.2672ZM17.28 2.10811C17.4157 2.22392 17.4824 2.27875 17.5517 2.33117C19.6132 3.90612 20.908 6.14259 21.1592 8.56306C21.2393 9.27377 21.2036 9.99908 21.3448 10.6976C21.5945 12.0964 22.2855 13.4017 23.3354 14.4588C24.3854 15.5159 25.7502 16.2806 27.269 16.6624C28.7878 17.0442 30.3967 17.0271 31.905 16.6131C33.4134 16.1991 34.7585 15.4055 35.7803 14.3263C36.8021 13.2472 37.4581 11.9277 37.6709 10.5239C37.8837 9.1202 37.6444 7.69105 36.9811 6.40575C36.3177 5.12046 35.2583 4.03288 33.9282 3.27166C32.598 2.51043 31.0529 2.1074 29.4757 2.11049C25.5481 2.10073 21.6203 2.11049 17.6941 2.11049L17.28 2.10811ZM22.8106 16.8793C22.6749 16.7647 22.6108 16.71 22.5389 16.6576C20.4767 15.0828 19.1817 12.8464 18.9293 10.4257C18.8493 9.71623 18.8843 8.99089 18.7431 8.29237C18.493 6.89063 17.7999 5.58295 16.7465 4.52464C15.6931 3.46633 14.3239 2.70194 12.801 2.32239C11.2781 1.94284 9.66557 1.96408 8.1557 2.38355C6.64583 2.80303 5.30216 3.60305 4.28374 4.68863C3.26531 5.77421 2.61532 7.09968 2.41104 8.5074C2.20675 9.91512 2.45678 11.3459 3.13136 12.6298C3.80594 13.9136 4.87637 14.9964 6.21607 15.7496C7.55578 16.5027 9.10808 16.8943 10.6884 16.8781C14.1591 16.8822 17.6296 16.8822 21.1002 16.8781L22.8106 16.8793Z" fill="#0081C5"/>
<path d="M28.3475 9.49383H26.0282V7.39218H28.3356V5.30139H30.6887V7.37388H33.016V9.48773H30.7444C30.5951 10.8287 30.5773 11.8612 33.0147 11.615V13.6873C31.941 13.1683 30.7411 12.8967 29.5218 12.8967C28.3025 12.8967 27.1019 13.1683 26.0282 13.6873V11.5967H26.9864C27.1722 11.6186 27.3612 11.6015 27.5384 11.5468C27.7156 11.4921 27.8761 11.4013 28.0076 11.2813C28.1391 11.1614 28.2382 11.0157 28.2965 10.8557C28.3548 10.6958 28.3708 10.5259 28.3436 10.3593C28.3476 10.0887 28.3475 9.80957 28.3475 9.49383Z" fill="#0081C5"/>
<path d="M14.073 13.1696H11.7404V11.0971H9.40454V13.1696H7.07725C7.0635 13.1142 7.0544 13.0579 7.05008 13.0013C7.05008 11.2788 7.0338 9.55623 7.05008 7.8337C7.06696 7.09501 7.37215 6.38518 7.91222 5.82789C8.45228 5.2706 9.19272 4.90126 10.0049 4.78443C10.8171 4.6676 11.6493 4.81066 12.3561 5.1886C13.0629 5.56654 13.5994 6.15542 13.8722 6.85245C13.9993 7.1717 14.0687 7.507 14.0783 7.84591C14.1 9.55259 14.0896 11.2667 14.0896 12.9782C14.0923 13.038 14.0812 13.0952 14.073 13.1696ZM11.7431 8.9541C11.7431 8.56156 11.758 8.21167 11.7431 7.86302C11.7312 7.60961 11.6164 7.36875 11.421 7.18564C11.2257 7.00252 10.9629 6.88965 10.6815 6.86822C10.3937 6.83733 10.1039 6.90711 9.87172 7.06302C9.63955 7.21892 9.48283 7.44901 9.43436 7.70573C9.39905 8.12111 9.39526 8.53822 9.42243 8.9541H11.7431Z" fill="#0081C5"/>
</svg>
