<svg id="level-0" xmlns="http://www.w3.org/2000/svg" width="11.473" height="15" viewBox="0 0 11.473 15">
  <g id="Grupo_1925" data-name="Grupo 1925" transform="translate(0.857 9.902)">
    <path id="Caminho_1771" data-name="Caminho 1771" d="M89,342.878a4.878,4.878,0,0,1,9.756,0Z" transform="translate(-89 -338)" fill="#494f57"/>
    <path id="Caminho_1772" data-name="Caminho 1772" d="M156.124,350.643H148.1L152.743,346A4.877,4.877,0,0,1,156.124,350.643Z" transform="translate(-146.369 -345.766)" fill="#535860"/>
    <path id="Caminho_1773" data-name="Caminho 1773" d="M89,350.643h8.024L92.381,346A4.881,4.881,0,0,0,89,350.643Z" transform="translate(-89 -345.766)" fill="#5c626b"/>
    <path id="Caminho_1774" data-name="Caminho 1774" d="M94.335,338.021c-.149-.015-.3-.021-.457-.021A4.876,4.876,0,0,0,89,342.878h.917A4.878,4.878,0,0,1,94.335,338.021Z" transform="translate(-89 -338)" fill="#535860"/>
    <g id="Grupo_1924" data-name="Grupo 1924">
      <path id="Caminho_1775" data-name="Caminho 1775" d="M93.878,338.416a4.465,4.465,0,0,1,4.444,4.046H89.434a4.465,4.465,0,0,1,4.444-4.046m0-.416A4.876,4.876,0,0,0,89,342.878h9.756A4.876,4.876,0,0,0,93.878,338Z" transform="translate(-89 -338)"/>
    </g>
  </g>
  <path id="Caminho_1776" data-name="Caminho 1776" d="M89,342.878a4.878,4.878,0,0,1,9.756,0Z" transform="translate(-88.143 -328.098)" fill="#ccc"/>
  <path id="Caminho_1777" data-name="Caminho 1777" d="M156.124,350.643H148.1L152.743,346A4.877,4.877,0,0,1,156.124,350.643Z" transform="translate(-145.511 -335.863)" fill="#ededed"/>
  <path id="Caminho_1778" data-name="Caminho 1778" d="M89,350.643h8.024L92.381,346A4.881,4.881,0,0,0,89,350.643Z" transform="translate(-88.143 -335.863)" fill="#fff"/>
  <path id="Caminho_1779" data-name="Caminho 1779" d="M94.335,338.021c-.149-.015-.3-.021-.457-.021A4.876,4.876,0,0,0,89,342.878h.917A4.878,4.878,0,0,1,94.335,338.021Z" transform="translate(-88.143 -328.098)" fill="#ededed"/>
  <path id="Caminho_1780" data-name="Caminho 1780" d="M87.082,12.741A5.241,5.241,0,1,1,81.841,7.5,5.241,5.241,0,0,1,87.082,12.741Z" transform="translate(-76.106 -7.28)" fill="#f7c2ad"/>
  <path id="Caminho_1781" data-name="Caminho 1781" d="M77.479,12.741a5.245,5.245,0,0,1,4.8-5.224q-.215-.018-.439-.018a5.241,5.241,0,1,0,0,10.482q.224,0,.439-.018A5.245,5.245,0,0,1,77.479,12.741Z" transform="translate(-76.106 -7.28)" fill="#efb5a0"/>
  <path id="Caminho_1782" data-name="Caminho 1782" d="M311.92,203.8a.221.221,0,0,0-.22.22v.334a.22.22,0,1,0,.439,0v-.334A.219.219,0,0,0,311.92,203.8Z" transform="translate(-304.319 -197.829)"/>
  <path id="Caminho_1783" data-name="Caminho 1783" d="M184.52,203.8a.221.221,0,0,0-.22.22v.334a.22.22,0,1,0,.439,0v-.334A.218.218,0,0,0,184.52,203.8Z" transform="translate(-180.651 -197.829)"/>
  <g id="Grupo_1926" data-name="Grupo 1926" transform="translate(0.652 10.324)">
    <path id="Caminho_1784" data-name="Caminho 1784" d="M84.619,352.4c-.114.065-.226.132-.337.205l-.36.261a5.19,5.19,0,0,0-.612.577l-.281.34A5.116,5.116,0,0,0,82,356.856a.221.221,0,0,0,.22.22h9.756a.221.221,0,0,0,.22-.22,5.106,5.106,0,0,0-1.031-3.073l-.281-.34a4.971,4.971,0,0,0-.612-.577l-.36-.261c-.108-.073-.22-.141-.337-.205l-.516.232c.1.044.19.094.281.144l.384.237a4.666,4.666,0,0,1,2.021,3.624h-9.3a4.674,4.674,0,0,1,2.021-3.624l.384-.237c.091-.05.188-.1.281-.144Z" transform="translate(-82 -352.4)"/>
  </g>
  <path id="Caminho_1785" data-name="Caminho 1785" d="M67.521,111.115H77.854a.348.348,0,0,0,.349-.378,5.2,5.2,0,0,0-.4-1.623.352.352,0,0,0-.322-.214H67.893a.352.352,0,0,0-.322.214,5.178,5.178,0,0,0-.4,1.623A.352.352,0,0,0,67.521,111.115Z" transform="translate(-66.951 -105.71)" fill="#fff"/>
  <path id="Caminho_1786" data-name="Caminho 1786" d="M68.036,110.737a5.2,5.2,0,0,1,.4-1.623.352.352,0,0,1,.322-.214h-.879a.352.352,0,0,0-.322.214,5.178,5.178,0,0,0-.4,1.623.351.351,0,0,0,.349.378h.879A.351.351,0,0,1,68.036,110.737Z" transform="translate(-66.939 -105.71)" fill="#ededed"/>
  <path id="Caminho_1787" data-name="Caminho 1787" d="M60.216,5.144a.119.119,0,0,1-.032-.1,4.988,4.988,0,0,1,.384-1.556.132.132,0,0,1,.12-.079h6.984a.22.22,0,1,0,0-.439H61.118a5.022,5.022,0,0,1,8.725,0H68.492a.22.22,0,1,0,0,.439H70.27a.132.132,0,0,1,.12.079,4.989,4.989,0,0,1,.384,1.556.143.143,0,0,1-.032.1.136.136,0,0,1-.1.041H60.315A.138.138,0,0,1,60.216,5.144Zm10.28.48a5.02,5.02,0,0,1-10.034,0Zm-2.537,4.7a5.442,5.442,0,0,0,.814-.513l.34-.281a5.755,5.755,0,0,0,.48-.483l.278-.346A5.434,5.434,0,0,0,70.941,5.54a.536.536,0,0,0,.126-.1.57.57,0,0,0,.149-.431,5.4,5.4,0,0,0-.416-1.69.575.575,0,0,0-.454-.343,5.464,5.464,0,0,0-9.729,0,.567.567,0,0,0-.454.343,5.421,5.421,0,0,0-.416,1.69.57.57,0,0,0,.149.431.6.6,0,0,0,.126.1A5.441,5.441,0,0,0,61.092,8.7l.278.346a5.345,5.345,0,0,0,.48.483l.34.281a5.442,5.442,0,0,0,.814.513l.516.231a5.522,5.522,0,0,0,.82.246l.727.105c.138.012.275.015.416.015s.278-.006.416-.015l.727-.105a5.522,5.522,0,0,0,.82-.246Z" transform="translate(-59.745)"/>
</svg>
