<svg id="level-4" xmlns="http://www.w3.org/2000/svg" width="14.305" height="15.042" viewBox="0 0 14.305 15.042">
  <path id="Caminho_1854" data-name="Caminho 1854" d="M22.231,262.822l-.908.908-1.71-1.71a.642.642,0,1,1,.908-.908Z" transform="translate(-19.207 -253.258)" fill="#5c626b"/>
  <path id="Caminho_1855" data-name="Caminho 1855" d="M20,261.7a.639.639,0,0,0-.288,1.073l1.71,1.71.453-.453-1.71-1.71A.638.638,0,0,1,20,261.7Z" transform="translate(-19.304 -254.01)" fill="#535860"/>
  <path id="Caminho_1856" data-name="Caminho 1856" d="M84,326.408l.908-.908,2.471,2.471-.908.908Z" transform="translate(-81.884 -315.935)" fill="#dfe0e0"/>
  <path id="Caminho_1857" data-name="Caminho 1857" d="M84,341.453l.453-.453,2.471,2.471-.453.453Z" transform="translate(-81.884 -330.98)" fill="#c9caca"/>
  <path id="Caminho_1858" data-name="Caminho 1858" d="M58.379,298.083l-1.7,1.7a.131.131,0,0,1-.188,0l-.605-.605a.131.131,0,0,1,0-.188l1.7-1.7a.131.131,0,0,1,.188,0l.605.605A.137.137,0,0,1,58.379,298.083Z" transform="translate(-54.561 -288.515)" fill="#fbe067"/>
  <path id="Caminho_1859" data-name="Caminho 1859" d="M57.118,335.893l-.605-.605a.131.131,0,0,1,0-.188l-.623.623a.131.131,0,0,0,0,.188l.605.605a.131.131,0,0,0,.188,0l.623-.623A.131.131,0,0,1,57.118,335.893Z" transform="translate(-54.561 -325.253)" fill="#e7ce5f"/>
  <path id="Caminho_1860" data-name="Caminho 1860" d="M396.1,262.822l.908.908,1.71-1.71a.642.642,0,1,0-.908-.908Z" transform="translate(-384.813 -253.258)" fill="#5c626b"/>
  <path id="Caminho_1861" data-name="Caminho 1861" d="M413.375,261.7a.64.64,0,0,1,.288,1.073l-1.71,1.71-.453-.453,1.71-1.71A.638.638,0,0,0,413.375,261.7Z" transform="translate(-399.761 -254.01)" fill="#535860"/>
  <path id="Caminho_1862" data-name="Caminho 1862" d="M312.908,328.879l-.908-.908,2.471-2.471.908.908Z" transform="translate(-303.185 -315.935)" fill="#dfe0e0"/>
  <path id="Caminho_1863" data-name="Caminho 1863" d="M327.4,343.371l2.471-2.471.453.453-2.471,2.471Z" transform="translate(-318.132 -330.883)" fill="#c9caca"/>
  <path id="Caminho_1864" data-name="Caminho 1864" d="M367.862,298.083l1.7,1.7a.131.131,0,0,0,.188,0l.605-.605a.131.131,0,0,0,0-.188l-1.7-1.7a.131.131,0,0,0-.188,0l-.605.605A.137.137,0,0,0,367.862,298.083Z" transform="translate(-357.369 -288.515)" fill="#fbe067"/>
  <path id="Caminho_1865" data-name="Caminho 1865" d="M405.788,335.893l.605-.605a.131.131,0,0,0,0-.188l.623.623a.131.131,0,0,1,0,.188l-.605.605a.131.131,0,0,1-.188,0l-.623-.623A.131.131,0,0,0,405.788,335.893Z" transform="translate(-394.034 -325.253)" fill="#e7ce5f"/>
  <path id="Caminho_1866" data-name="Caminho 1866" d="M89,342.893a4.893,4.893,0,0,1,9.785,0Z" transform="translate(-86.737 -328.068)" fill="#494f57"/>
  <path id="Caminho_1867" data-name="Caminho 1867" d="M156.148,350.657H148.1L152.757,346A4.892,4.892,0,0,1,156.148,350.657Z" transform="translate(-144.101 -335.833)" fill="#535860"/>
  <path id="Caminho_1868" data-name="Caminho 1868" d="M149.728,350.657H148.1L152.757,346a4.774,4.774,0,0,1,1.108.52Z" transform="translate(-144.101 -335.833)" fill="#141414"/>
  <path id="Caminho_1869" data-name="Caminho 1869" d="M89,350.657h8.049L92.391,346A4.9,4.9,0,0,0,89,350.657Z" transform="translate(-86.737 -335.833)" fill="#5c626b"/>
  <path id="Caminho_1870" data-name="Caminho 1870" d="M94.351,338.021c-.15-.015-.306-.021-.458-.021A4.891,4.891,0,0,0,89,342.893h.92A4.893,4.893,0,0,1,94.351,338.021Z" transform="translate(-86.737 -328.068)" fill="#535860"/>
  <path id="Caminho_1871" data-name="Caminho 1871" d="M170.837,350.657h1.628L167.808,346a4.775,4.775,0,0,0-1.108.52Z" transform="translate(-162.154 -335.833)" fill="#232323"/>
  <path id="Caminho_1872" data-name="Caminho 1872" d="M168.072,346.264l-.264-.264a4.775,4.775,0,0,0-1.108.52l.388.388A4.771,4.771,0,0,1,168.072,346.264Z" transform="translate(-162.154 -335.833)" fill="#141414"/>
  <path id="Caminho_1873" data-name="Caminho 1873" d="M87.114,12.757A5.257,5.257,0,1,1,81.857,7.5,5.257,5.257,0,0,1,87.114,12.757Z" transform="translate(-74.702 -7.28)" fill="#5c626b"/>
  <path id="Caminho_1874" data-name="Caminho 1874" d="M77.482,12.757A5.26,5.26,0,0,1,82.3,7.518q-.216-.018-.441-.018a5.257,5.257,0,1,0,0,10.514q.225,0,.441-.018A5.26,5.26,0,0,1,77.482,12.757Z" transform="translate(-74.702 -7.28)" fill="#535860"/>
  <path id="Caminho_1875" data-name="Caminho 1875" d="M76.6,147.964c0,.129.006.256.015.382a.433.433,0,0,0,.062,0H87.04a.433.433,0,0,0,.062,0c.009-.126.015-.253.015-.382a5.231,5.231,0,0,0-.129-1.164H76.729A5.23,5.23,0,0,0,76.6,147.964Z" transform="translate(-74.702 -142.486)" fill="#535860"/>
  <path id="Caminho_1876" data-name="Caminho 1876" d="M139.4,186.889l-.655-.273a3.313,3.313,0,0,0-2.542,0l-.655.273a1.19,1.19,0,1,1-.458-2.289h4.769a1.19,1.19,0,1,1-.458,2.289Z" transform="translate(-130.318 -179.176)" fill="#f7c2ad"/>
  <path id="Caminho_1877" data-name="Caminho 1877" d="M139.856,184.5H135.09a1.19,1.19,0,1,0,.441,2.295,1.186,1.186,0,0,1-.749-1.1v-.009a.752.752,0,0,1,.755-.741h5.245A1.193,1.193,0,0,0,139.856,184.5Z" transform="translate(-130.318 -179.078)" fill="#efb5a0"/>
  <path id="Caminho_1878" data-name="Caminho 1878" d="M67.522,111.121H77.886a.349.349,0,0,0,.35-.379,5.213,5.213,0,0,0-.4-1.628.353.353,0,0,0-.323-.215H67.9a.353.353,0,0,0-.323.215,5.194,5.194,0,0,0-.4,1.628A.353.353,0,0,0,67.522,111.121Z" transform="translate(-65.547 -105.7)" fill="#232323"/>
  <path id="Caminho_1879" data-name="Caminho 1879" d="M68.039,110.742a5.213,5.213,0,0,1,.4-1.628.353.353,0,0,1,.323-.215h-.882a.353.353,0,0,0-.323.215,5.194,5.194,0,0,0-.4,1.628.352.352,0,0,0,.35.379h.882A.352.352,0,0,1,68.039,110.742Z" transform="translate(-65.535 -105.7)" fill="#141414"/>
  <path id="Caminho_1880" data-name="Caminho 1880" d="M311.92,203.8a.222.222,0,0,0-.22.22v.335a.22.22,0,0,0,.441,0v-.335A.22.22,0,0,0,311.92,203.8Z" transform="translate(-302.893 -197.811)"/>
  <path id="Caminho_1881" data-name="Caminho 1881" d="M184.52,203.8a.222.222,0,0,0-.22.22v.335a.22.22,0,1,0,.441,0v-.335A.218.218,0,0,0,184.52,203.8Z" transform="translate(-179.237 -197.811)"/>
  <path id="Caminho_1882" data-name="Caminho 1882" d="M26.058,7.7a.858.858,0,0,0-1.217,0L23.686,8.854l-.126-.126a5.45,5.45,0,0,0,1.073-3.171.538.538,0,0,0,.126-.1.571.571,0,0,0,.15-.432,5.417,5.417,0,0,0-.417-1.7.576.576,0,0,0-.455-.344,5.48,5.48,0,0,0-9.759,0,.569.569,0,0,0-.455.344,5.437,5.437,0,0,0-.417,1.7.571.571,0,0,0,.15.432.605.605,0,0,0,.126.1A5.458,5.458,0,0,0,14.753,8.73l-.126.126L13.472,7.7a.862.862,0,1,0-1.219,1.219l.282.282h0l.52.52h0l.353.353-.238.238a.353.353,0,0,0,0,.5l.605.605a.355.355,0,0,0,.5,0l.238-.238.561.561a5.115,5.115,0,0,0-1.034,3.082.222.222,0,0,0,.22.22h9.785a.222.222,0,0,0,.22-.22,5.121,5.121,0,0,0-1.034-3.082l.561-.561.238.238a.355.355,0,0,0,.5,0l.605-.605a.353.353,0,0,0,0-.5l-.238-.238.353-.353h0l.52-.52h0l.282-.282A.858.858,0,0,0,26.3,8.31.836.836,0,0,0,26.058,7.7ZM13.875,5.16a.119.119,0,0,1-.032-.1,5,5,0,0,1,.385-1.56.132.132,0,0,1,.12-.079h7.005a.22.22,0,1,0,0-.441H14.78a5.037,5.037,0,0,1,8.751,0H22.176a.22.22,0,1,0,0,.441H23.96a.132.132,0,0,1,.12.079,5,5,0,0,1,.385,1.56.144.144,0,0,1-.032.1.136.136,0,0,1-.1.041H13.975A.138.138,0,0,1,13.875,5.16Zm8.636,1.452a.97.97,0,0,1-1.343.9l-.655-.273a3.554,3.554,0,0,0-2.712,0l-.655.273a.97.97,0,0,1-1.343-.9.971.971,0,0,1,.97-.97h4.769A.973.973,0,0,1,22.511,6.612Zm-8.389-.97h1.625a1.411,1.411,0,0,0,1.566,2.274l.655-.273a3.1,3.1,0,0,1,2.371,0l.655.273a1.411,1.411,0,0,0,1.566-2.274h1.625a5.035,5.035,0,0,1-10.064,0Zm8.457,4.32-.6.6c-.109-.073-.22-.141-.338-.206a5.459,5.459,0,0,0,.817-.514Zm-2.277.873a5.539,5.539,0,0,0,.823-.247c.1.044.191.094.282.144l-1.44,1.44-.5-.5Zm-1.146.52-.417-.417c.138.012.276.015.417.015s.279-.006.417-.015Zm-2.486-1c-.115.065-.226.132-.338.206l-.6-.6.12-.12A5.232,5.232,0,0,0,16.669,10.355Zm-2.85-1.4a.222.222,0,0,0-.311,0l-.3.3L13,9.045l.3-.3a.22.22,0,0,0-.311-.311l-.3.3-.126-.126a.42.42,0,1,1,.594-.594l1.158,1.155-.6.6-.2-.2.3-.3A.225.225,0,0,0,13.819,8.957Zm.209,2.089-.482-.482,1.487-1.487a5.36,5.36,0,0,0,.482.485Zm.8-.176.6-.6.549.549a5.2,5.2,0,0,0-.614.579ZM20.774,14.6l-2.333-2.333a.22.22,0,0,0-.311.311L20.151,14.6H14.489a4.688,4.688,0,0,1,2.028-3.635L17.6,12.054a.22.22,0,0,0,.311,0,.222.222,0,0,0,0-.311L16.9,10.734c.091-.05.188-.1.282-.144a5.539,5.539,0,0,0,.823.247l3.77,3.767Zm3.047,0H22.4l-2.122-2.122,1.513-1.513A4.68,4.68,0,0,1,23.822,14.6Zm-.87-3.2a4.986,4.986,0,0,0-.614-.579l.549-.549.6.6Zm1.331-.356L22.8,9.562a5.77,5.77,0,0,0,.482-.485l1.487,1.487Zm1.463-2.439-.126.126-.3-.3a.22.22,0,0,0-.311.311l.3.3-.209.209-.3-.3a.22.22,0,0,0-.311.311l.3.3-.2.2-.6-.594L25.15,8.013a.42.42,0,0,1,.717.3A.4.4,0,0,1,25.746,8.607Z" transform="translate(-12)"/>
</svg>
