<svg id="level-3" xmlns="http://www.w3.org/2000/svg" width="11.473" height="15" viewBox="0 0 11.473 15">
  <g id="Grupo_1943" data-name="Grupo 1943" transform="translate(0.857 9.902)">
    <path id="Caminho_1830" data-name="Caminho 1830" d="M89,342.878a4.878,4.878,0,1,1,9.756,0Z" transform="translate(-89 -338)" fill="#494f57"/>
    <path id="Caminho_1831" data-name="Caminho 1831" d="M156.124,350.644H148.1L152.744,346A4.877,4.877,0,0,1,156.124,350.644Z" transform="translate(-146.369 -345.766)" fill="#535860"/>
    <path id="Caminho_1832" data-name="Caminho 1832" d="M89,350.644h8.024L92.381,346A4.881,4.881,0,0,0,89,350.644Z" transform="translate(-89 -345.766)" fill="#5c626b"/>
    <path id="Caminho_1833" data-name="Caminho 1833" d="M94.335,338.021c-.149-.015-.3-.021-.457-.021A4.876,4.876,0,0,0,89,342.878h.917A4.878,4.878,0,0,1,94.335,338.021Z" transform="translate(-89 -338)" fill="#535860"/>
    <g id="Grupo_1942" data-name="Grupo 1942" transform="translate(0)">
      <path id="Caminho_1834" data-name="Caminho 1834" d="M93.878,338.416a4.465,4.465,0,0,1,4.444,4.046H89.434a4.465,4.465,0,0,1,4.444-4.046m0-.416A4.876,4.876,0,0,0,89,342.878h9.756A4.876,4.876,0,0,0,93.878,338Z" transform="translate(-89 -338)"/>
    </g>
  </g>
  <g id="Grupo_1944" data-name="Grupo 1944" transform="translate(0.652 9.902)">
    <path id="Caminho_1835" data-name="Caminho 1835" d="M89.5,342.878a4.878,4.878,0,1,1,9.756,0Z" transform="translate(-89.28 -338)" fill="#4f5051"/>
    <path id="Caminho_1836" data-name="Caminho 1836" d="M156.624,350.644H148.6L153.244,346A4.881,4.881,0,0,1,156.624,350.644Z" transform="translate(-146.649 -345.766)" fill="#747677"/>
    <path id="Caminho_1837" data-name="Caminho 1837" d="M150.223,350.644H148.6L153.244,346a4.765,4.765,0,0,1,1.1.519Z" transform="translate(-146.649 -345.766)" fill="#006837"/>
    <path id="Caminho_1838" data-name="Caminho 1838" d="M89.5,350.644h8.024L92.881,346A4.877,4.877,0,0,0,89.5,350.644Z" transform="translate(-89.28 -345.766)" fill="#9a9c9e"/>
    <path id="Caminho_1839" data-name="Caminho 1839" d="M94.835,338.021c-.149-.015-.3-.021-.457-.021a4.876,4.876,0,0,0-4.878,4.878h.917A4.878,4.878,0,0,1,94.835,338.021Z" transform="translate(-89.28 -338)" fill="#747677"/>
    <path id="Caminho_1840" data-name="Caminho 1840" d="M171.325,350.644h1.623L168.3,346a4.765,4.765,0,0,0-1.1.519Z" transform="translate(-164.704 -345.766)" fill="#009245"/>
    <path id="Caminho_1841" data-name="Caminho 1841" d="M168.568,346.264,168.3,346a4.765,4.765,0,0,0-1.1.519l.387.387A4.759,4.759,0,0,1,168.568,346.264Z" transform="translate(-164.704 -345.766)" fill="#006837"/>
    <path id="Caminho_1842" data-name="Caminho 1842" d="M88.24,352.878a5.515,5.515,0,0,0,.82-.246c.1.044.19.094.281.144l-1.436,1.436-.5-.5ZM87.1,353.4l-.416-.416c.138.012.275.015.416.015s.278-.006.416-.015Zm1.614,3.24-2.326-2.326a.22.22,0,0,0-.311.311l2.016,2.016H82.445a4.674,4.674,0,0,1,2.021-3.624l1.081,1.081a.219.219,0,0,0,.311,0,.221.221,0,0,0,0-.311l-1-1c.091-.05.188-.1.281-.144a5.522,5.522,0,0,0,.82.246l3.759,3.756Zm3.038,0H90.335l-2.115-2.115,1.509-1.509A4.666,4.666,0,0,1,91.75,356.636ZM84.619,352.4c-.114.064-.226.132-.337.205l-.36.261a5.182,5.182,0,0,0-.612.577l-.281.34A5.116,5.116,0,0,0,82,356.856a.221.221,0,0,0,.22.22h9.756a.221.221,0,0,0,.22-.22,5.106,5.106,0,0,0-1.031-3.073l-.281-.34a4.964,4.964,0,0,0-.612-.577l-.36-.261c-.108-.073-.22-.141-.337-.205Z" transform="translate(-82 -351.978)"/>
  </g>
  <path id="Caminho_1843" data-name="Caminho 1843" d="M368.681,297.289a.131.131,0,0,0-.187,0l-.6.6a.131.131,0,0,0,0,.188" transform="translate(-358.823 -288.541)" fill="#fbe067"/>
  <path id="Caminho_1844" data-name="Caminho 1844" d="M87.082,12.741A5.241,5.241,0,1,1,81.841,7.5,5.241,5.241,0,0,1,87.082,12.741Z" transform="translate(-76.106 -7.28)" fill="#9a9c9e"/>
  <path id="Caminho_1845" data-name="Caminho 1845" d="M77.479,12.741a5.245,5.245,0,0,1,4.8-5.224q-.215-.018-.439-.018a5.241,5.241,0,0,0,0,10.483q.224,0,.439-.018A5.245,5.245,0,0,1,77.479,12.741Z" transform="translate(-76.106 -7.28)" fill="#747677"/>
  <path id="Caminho_1846" data-name="Caminho 1846" d="M76.6,147.96c0,.129.006.255.015.381a.433.433,0,0,0,.062,0H87.009a.433.433,0,0,0,.062,0c.009-.126.015-.252.015-.381a5.215,5.215,0,0,0-.129-1.16H76.729A5.215,5.215,0,0,0,76.6,147.96Z" transform="translate(-76.106 -142.499)" fill="#535860"/>
  <path id="Caminho_1847" data-name="Caminho 1847" d="M139.384,186.882l-.653-.272a3.3,3.3,0,0,0-2.534,0l-.653.272a1.187,1.187,0,1,1-.457-2.282h4.755a1.187,1.187,0,1,1-.457,2.282Z" transform="translate(-131.728 -179.192)" fill="#f7c2ad"/>
  <path id="Caminho_1848" data-name="Caminho 1848" d="M139.839,184.5h-4.752a1.186,1.186,0,1,0,.439,2.288,1.183,1.183,0,0,1-.747-1.1v-.009a.75.75,0,0,1,.753-.738h5.23A1.19,1.19,0,0,0,139.839,184.5Z" transform="translate(-131.728 -179.095)" fill="#efb5a0"/>
  <path id="Caminho_1849" data-name="Caminho 1849" d="M67.521,111.115H77.854a.348.348,0,0,0,.349-.378,5.2,5.2,0,0,0-.4-1.623.352.352,0,0,0-.322-.214H67.893a.352.352,0,0,0-.322.214,5.178,5.178,0,0,0-.4,1.623A.352.352,0,0,0,67.521,111.115Z" transform="translate(-66.951 -105.709)" fill="#009245"/>
  <path id="Caminho_1850" data-name="Caminho 1850" d="M68.036,110.737a5.2,5.2,0,0,1,.4-1.623.352.352,0,0,1,.322-.214h-.879a.352.352,0,0,0-.322.214,5.177,5.177,0,0,0-.4,1.623.351.351,0,0,0,.349.378h.879A.351.351,0,0,1,68.036,110.737Z" transform="translate(-66.939 -105.709)" fill="#006837"/>
  <path id="Caminho_1851" data-name="Caminho 1851" d="M311.92,203.8a.221.221,0,0,0-.22.22v.334a.22.22,0,0,0,.44,0v-.334A.219.219,0,0,0,311.92,203.8Z" transform="translate(-304.318 -197.829)"/>
  <path id="Caminho_1852" data-name="Caminho 1852" d="M184.52,203.8a.221.221,0,0,0-.22.22v.334a.22.22,0,0,0,.439,0v-.334A.218.218,0,0,0,184.52,203.8Z" transform="translate(-180.651 -197.829)"/>
  <path id="Caminho_1853" data-name="Caminho 1853" d="M60.216,5.145a.119.119,0,0,1-.032-.1,4.989,4.989,0,0,1,.384-1.556.132.132,0,0,1,.12-.079h6.984a.22.22,0,1,0,0-.439H61.118a5.022,5.022,0,0,1,8.725,0H68.492a.22.22,0,1,0,0,.439H70.27a.132.132,0,0,1,.12.079,4.989,4.989,0,0,1,.384,1.556.143.143,0,0,1-.032.1.136.136,0,0,1-.1.041H60.315A.138.138,0,0,1,60.216,5.145Zm8.61,1.447a.967.967,0,0,1-1.339.894l-.653-.272a3.544,3.544,0,0,0-2.7,0l-.653.272a.967.967,0,0,1-1.339-.894.968.968,0,0,1,.967-.967h4.755A.97.97,0,0,1,68.826,6.592Zm-8.364-.967h1.62a1.407,1.407,0,0,0,1.562,2.268L64.3,7.62a3.089,3.089,0,0,1,2.364,0l.653.272a1.407,1.407,0,0,0,1.562-2.268H70.5a5.02,5.02,0,0,1-10.034,0Zm7.5,4.7a5.442,5.442,0,0,0,.814-.513l.34-.281a5.754,5.754,0,0,0,.48-.483l.278-.346A5.434,5.434,0,0,0,70.941,5.54a.537.537,0,0,0,.126-.1.57.57,0,0,0,.149-.431,5.4,5.4,0,0,0-.416-1.69.575.575,0,0,0-.454-.343,5.464,5.464,0,0,0-9.73,0,.567.567,0,0,0-.454.343,5.421,5.421,0,0,0-.416,1.69.57.57,0,0,0,.149.431.6.6,0,0,0,.126.1A5.441,5.441,0,0,0,61.092,8.7l.278.346a5.345,5.345,0,0,0,.48.483l.34.281a5.443,5.443,0,0,0,.814.513l.516.231a5.522,5.522,0,0,0,.82.246l.727.105c.138.012.275.015.416.015s.278-.006.416-.015l.727-.105a5.522,5.522,0,0,0,.82-.246Z" transform="translate(-59.745 0)"/>
</svg>
