<svg id="level-2" xmlns="http://www.w3.org/2000/svg" width="11.505" height="15.042" viewBox="0 0 11.505 15.042">
  <g id="Grupo_1934" data-name="Grupo 1934" transform="translate(0.859 9.93)">
    <path id="Caminho_1808" data-name="Caminho 1808" d="M89,342.892a4.892,4.892,0,1,1,9.783,0Z" transform="translate(-89 -338)" fill="#494f57"/>
    <path id="Caminho_1809" data-name="Caminho 1809" d="M156.147,350.657H148.1L152.757,346A4.891,4.891,0,0,1,156.147,350.657Z" transform="translate(-146.364 -345.765)" fill="#535860"/>
    <path id="Caminho_1810" data-name="Caminho 1810" d="M89,350.657h8.047L92.39,346A4.894,4.894,0,0,0,89,350.657Z" transform="translate(-89 -345.765)" fill="#5c626b"/>
    <path id="Caminho_1811" data-name="Caminho 1811" d="M94.35,338.021c-.15-.015-.306-.021-.458-.021A4.89,4.89,0,0,0,89,342.892h.92A4.892,4.892,0,0,1,94.35,338.021Z" transform="translate(-89 -338)" fill="#535860"/>
    <g id="Grupo_1933" data-name="Grupo 1933" transform="translate(0)">
      <path id="Caminho_1812" data-name="Caminho 1812" d="M93.892,338.417a4.477,4.477,0,0,1,4.457,4.057H89.435a4.477,4.477,0,0,1,4.457-4.057m0-.417A4.89,4.89,0,0,0,89,342.892h9.783A4.89,4.89,0,0,0,93.892,338Z" transform="translate(-89 -338)"/>
    </g>
  </g>
  <g id="Grupo_1935" data-name="Grupo 1935" transform="translate(0.654 9.93)">
    <path id="Caminho_1813" data-name="Caminho 1813" d="M89.5,342.892a4.892,4.892,0,1,1,9.783,0Z" transform="translate(-89.28 -338)" fill="#ccc"/>
    <path id="Caminho_1814" data-name="Caminho 1814" d="M156.647,350.657H148.6L153.257,346A4.894,4.894,0,0,1,156.647,350.657Z" transform="translate(-146.643 -345.765)" fill="#ededed"/>
    <path id="Caminho_1815" data-name="Caminho 1815" d="M150.228,350.657H148.6L153.257,346a4.777,4.777,0,0,1,1.108.52Z" transform="translate(-146.643 -345.765)" fill="#fbb03b"/>
    <path id="Caminho_1816" data-name="Caminho 1816" d="M89.5,350.657h8.047L92.89,346A4.891,4.891,0,0,0,89.5,350.657Z" transform="translate(-89.28 -345.765)" fill="#fff"/>
    <path id="Caminho_1817" data-name="Caminho 1817" d="M94.85,338.021c-.15-.015-.306-.021-.458-.021a4.89,4.89,0,0,0-4.892,4.892h.92A4.892,4.892,0,0,1,94.85,338.021Z" transform="translate(-89.28 -338)" fill="#ededed"/>
    <path id="Caminho_1818" data-name="Caminho 1818" d="M171.337,350.657h1.628L168.308,346a4.777,4.777,0,0,0-1.108.52Z" transform="translate(-164.697 -345.765)" fill="#fcee21"/>
    <path id="Caminho_1819" data-name="Caminho 1819" d="M168.572,346.264l-.264-.264a4.777,4.777,0,0,0-1.108.52l.388.388A4.77,4.77,0,0,1,168.572,346.264Z" transform="translate(-164.697 -345.765)" fill="#fbb03b"/>
    <path id="Caminho_1820" data-name="Caminho 1820" d="M88.258,352.879a5.548,5.548,0,0,0,.823-.247c.1.044.191.094.282.144l-1.44,1.44-.5-.5Zm-1.146.52-.417-.417c.138.012.276.015.417.015s.279-.006.417-.015Zm1.619,3.249L86.4,354.316a.22.22,0,0,0-.311.311l2.021,2.021H82.447a4.687,4.687,0,0,1,2.027-3.634l1.084,1.084a.22.22,0,0,0,.311,0,.222.222,0,0,0,0-.311l-1.008-1.008c.091-.05.188-.1.282-.144a5.541,5.541,0,0,0,.823.247l3.769,3.766Zm3.047,0H90.358l-2.121-2.121,1.513-1.513A4.679,4.679,0,0,1,91.777,356.648ZM84.626,352.4c-.115.065-.226.132-.338.206l-.361.261a5.2,5.2,0,0,0-.614.579l-.282.341A5.13,5.13,0,0,0,82,356.869a.222.222,0,0,0,.22.22H92a.222.222,0,0,0,.22-.22,5.12,5.12,0,0,0-1.034-3.082l-.282-.341a4.985,4.985,0,0,0-.614-.579l-.361-.261c-.109-.073-.22-.141-.338-.206Z" transform="translate(-82 -351.977)"/>
  </g>
  <path id="Caminho_1821" data-name="Caminho 1821" d="M368.683,297.29a.131.131,0,0,0-.188,0l-.605.605a.131.131,0,0,0,0,.188" transform="translate(-358.798 -288.517)" fill="#fbe067"/>
  <path id="Caminho_1822" data-name="Caminho 1822" d="M87.112,12.756A5.256,5.256,0,1,1,81.856,7.5,5.256,5.256,0,0,1,87.112,12.756Z" transform="translate(-76.105 -7.28)" fill="#f7c2ad"/>
  <path id="Caminho_1823" data-name="Caminho 1823" d="M77.481,12.756A5.259,5.259,0,0,1,82.3,7.518q-.216-.018-.441-.018a5.256,5.256,0,1,0,0,10.512q.225,0,.441-.018A5.259,5.259,0,0,1,77.481,12.756Z" transform="translate(-76.105 -7.28)" fill="#efb5a0"/>
  <path id="Caminho_1824" data-name="Caminho 1824" d="M76.6,147.963c0,.129.006.256.015.382a.435.435,0,0,0,.062,0H87.038a.435.435,0,0,0,.062,0c.009-.126.015-.253.015-.382a5.23,5.23,0,0,0-.129-1.163H76.729A5.231,5.231,0,0,0,76.6,147.963Z" transform="translate(-76.105 -142.487)" fill="#efb5a0"/>
  <path id="Caminho_1825" data-name="Caminho 1825" d="M67.522,111.121H77.884a.349.349,0,0,0,.35-.379,5.212,5.212,0,0,0-.4-1.628.353.353,0,0,0-.323-.214H67.9a.353.353,0,0,0-.323.214,5.193,5.193,0,0,0-.4,1.628A.353.353,0,0,0,67.522,111.121Z" transform="translate(-66.95 -105.701)" fill="#fcee21"/>
  <path id="Caminho_1826" data-name="Caminho 1826" d="M68.039,110.742a5.213,5.213,0,0,1,.4-1.628.353.353,0,0,1,.323-.214h-.881a.353.353,0,0,0-.323.214,5.192,5.192,0,0,0-.4,1.628.352.352,0,0,0,.35.379h.881A.352.352,0,0,1,68.039,110.742Z" transform="translate(-66.938 -105.701)" fill="#fbb03b"/>
  <path id="Caminho_1827" data-name="Caminho 1827" d="M311.92,203.8a.222.222,0,0,0-.22.22v.335a.22.22,0,0,0,.441,0v-.335A.22.22,0,0,0,311.92,203.8Z" transform="translate(-304.298 -197.813)"/>
  <path id="Caminho_1828" data-name="Caminho 1828" d="M184.52,203.8a.222.222,0,0,0-.22.22v.335a.22.22,0,0,0,.441,0v-.335A.218.218,0,0,0,184.52,203.8Z" transform="translate(-180.641 -197.813)"/>
  <path id="Caminho_1829" data-name="Caminho 1829" d="M60.217,5.159a.119.119,0,0,1-.032-.1,5,5,0,0,1,.385-1.56.132.132,0,0,1,.12-.079h7a.22.22,0,1,0,0-.441H61.122a5.036,5.036,0,0,1,8.749,0H68.516a.22.22,0,1,0,0,.441H70.3a.132.132,0,0,1,.12.079,5,5,0,0,1,.385,1.56.144.144,0,0,1-.032.1.136.136,0,0,1-.1.041H60.317A.138.138,0,0,1,60.217,5.159Zm10.309.482a5.034,5.034,0,0,1-10.062,0Zm-2.544,4.712a5.458,5.458,0,0,0,.817-.514l.341-.282a5.77,5.77,0,0,0,.482-.485l.279-.347a5.449,5.449,0,0,0,1.072-3.17.538.538,0,0,0,.126-.1.571.571,0,0,0,.15-.432,5.416,5.416,0,0,0-.417-1.7.576.576,0,0,0-.455-.344,5.479,5.479,0,0,0-9.757,0,.569.569,0,0,0-.455.344,5.436,5.436,0,0,0-.417,1.7.571.571,0,0,0,.15.432.606.606,0,0,0,.126.1A5.457,5.457,0,0,0,61.1,8.729l.279.347a5.359,5.359,0,0,0,.482.485l.341.282a5.458,5.458,0,0,0,.817.514l.517.232a5.538,5.538,0,0,0,.823.247l.729.106c.138.012.276.015.417.015s.279-.006.417-.015l.729-.106a5.538,5.538,0,0,0,.823-.247Z" transform="translate(-59.745 0)"/>
</svg>
