<svg xmlns="http://www.w3.org/2000/svg" width="16" height="16" viewBox="0 0 16 16">
  <g id="linkedin" transform="translate(-418 -74)">
    <rect id="Retângulo_4093" data-name="Retângulo 4093" width="16" height="16" transform="translate(418 74)" fill="none"/>
    <g id="Grupo_3156" data-name="Grupo 3156" transform="translate(418 74)">
      <path id="Caminho_2397" data-name="Caminho 2397" d="M3659.166,366.464h-3.3V355.805h3.157v1.436c.044-.025.065-.029.073-.042a3.445,3.445,0,0,1,3.025-1.657,4.585,4.585,0,0,1,2.13.385,3.069,3.069,0,0,1,1.633,2.032,7.76,7.76,0,0,1,.3,2.2c.014,2.056.008,4.113.01,6.169,0,.031,0,.063-.008.107h-3.311v-.221c0-1.744,0-3.488-.007-5.232a6.828,6.828,0,0,0-.105-1.183,1.534,1.534,0,0,0-1.929-1.342,1.7,1.7,0,0,0-1.58,1.654,8.08,8.08,0,0,0-.078,1.108c-.008,1.666,0,3.332,0,5Z" transform="translate(-3650.188 -350.474)" fill="#464646"/>
      <path id="Caminho_2398" data-name="Caminho 2398" d="M3552.288,360.612h3.3v10.655h-3.3Z" transform="translate(-3552.013 -355.284)" fill="#464646"/>
      <path id="Caminho_2399" data-name="Caminho 2399" d="M3550.861,260.356a1.919,1.919,0,1,1-1.93-1.914A1.935,1.935,0,0,1,3550.861,260.356Z" transform="translate(-3547.023 -258.441)" fill="#464646"/>
    </g>
  </g>
</svg>
