<svg xmlns="http://www.w3.org/2000/svg" width="16" height="11.891" viewBox="0 0 16 11.891">
  <path id="mail" d="M3568.533,633.337a2.075,2.075,0,0,0-2.136-2.13h-11.662a2.069,2.069,0,0,0-2.169,1.738l-.012.026-.02.049v8.239l.006.027a2.342,2.342,0,0,0,.419.989,2.065,2.065,0,0,0,1.582.819c.043,0,.085,0,.126,0h11.73a2.06,2.06,0,0,0,2.082-1.622,2.263,2.263,0,0,0,.052-.508C3568.534,638.435,3568.534,635.868,3568.533,633.337Zm-14.26.844.81.6c1.677,1.247,3.411,2.536,5.112,3.81a.508.508,0,0,0,.684,0c1.692-1.265,3.416-2.547,5.083-3.787l.834-.62V640.9c0,.344-.111.454-.456.454h-11.617c-.336,0-.449-.112-.449-.445q0-2.571,0-5.142Zm1.267-1.224h9.988l-4.994,3.715Z" transform="translate(-3552.534 -631.206)" fill="#464646"/>
</svg>
