<svg xmlns="http://www.w3.org/2000/svg" width="16" height="16" viewBox="0 0 16 16">
  <g id="phone" transform="translate(-418 -193)">
    <rect id="Retângulo_4098" data-name="Retângulo 4098" width="16" height="16" transform="translate(418 193)" fill="none"/>
    <path id="phone-2" data-name="phone" d="M.571.758l3.25-.75A.755.755,0,0,1,4.68.443l1.5,3.5a.748.748,0,0,1-.216.875L4.071,6.368A11.581,11.581,0,0,0,9.608,11.9l1.55-1.894a.749.749,0,0,1,.875-.216l3.5,1.5a.759.759,0,0,1,.437.862l-.75,3.25a.75.75,0,0,1-.731.581A14.5,14.5,0,0,1-.01,1.489.749.749,0,0,1,.571.758Z" transform="translate(418.01 193.011)" fill="#464646"/>
  </g>
</svg>
