<svg xmlns="http://www.w3.org/2000/svg" width="15.54" height="20" viewBox="0 0 15.54 20">
  <path id="pessoais" d="M3994.759,1021.795a7.858,7.858,0,0,0-7.9-6.662,7.543,7.543,0,0,0-5.817,2.872,7.352,7.352,0,0,0-1.628,6.132,11.575,11.575,0,0,0,1.584,3.9,33.048,33.048,0,0,0,5.576,6.831c.363.351.612.347.984-.007a36.847,36.847,0,0,0,3.7-4.088,20.9,20.9,0,0,0,2.87-4.717A8,8,0,0,0,3994.759,1021.795Zm-3.355,1.184a4.345,4.345,0,1,1-4.335-4.407A4.364,4.364,0,0,1,3991.4,1022.979Z" transform="translate(-3979.288 -1015.133)" fill="#0081c5"/>
</svg>
