<svg width="15" height="19" viewBox="0 0 15 19" fill="none" xmlns="http://www.w3.org/2000/svg">
<path d="M14.6991 6.32997C14.4246 4.546 13.513 2.92192 12.1332 1.75832C10.7534 0.594727 8.99859 -0.0295596 7.19389 0.0010763C6.12781 0.016103 5.07864 0.268822 4.12263 0.740828C3.16662 1.21284 2.32797 1.89224 1.66784 2.72949C0.991457 3.5234 0.50143 4.45871 0.233799 5.46677C-0.0338315 6.47482 -0.072204 7.52998 0.121311 8.55485C0.392246 9.87144 0.902263 11.1272 1.62609 12.2599C3.09402 14.6499 4.87554 16.8326 6.92322 18.7494C7.26807 19.0828 7.50475 19.0789 7.85815 18.7426C9.12516 17.5377 10.3001 16.2395 11.3732 14.859C12.4762 13.4925 13.3929 11.9857 14.0995 10.378C14.6657 9.10883 14.8731 7.70871 14.6991 6.32997ZM11.5118 7.45479C11.5002 8.26897 11.248 9.06151 10.7871 9.73272C10.3261 10.4039 9.67685 10.9238 8.9211 11.227C8.16535 11.5301 7.33664 11.6029 6.53961 11.4363C5.74257 11.2696 5.01278 10.871 4.44177 10.2905C3.87075 9.71003 3.48405 8.97357 3.33057 8.1739C3.17709 7.37422 3.26368 6.54706 3.57921 5.7964C3.89473 5.04575 4.42522 4.40519 5.10394 3.95532C5.78265 3.50545 6.57932 3.26636 7.39358 3.26815C7.93883 3.27225 8.47773 3.38383 8.97978 3.59657C9.48183 3.80931 9.937 4.119 10.3192 4.5079C10.7014 4.89679 11.0031 5.35724 11.2071 5.86291C11.4111 6.36858 11.5133 6.90955 11.5079 7.45479H11.5118Z" fill="#0081C5"/>
</svg>
