<svg xmlns="http://www.w3.org/2000/svg" width="12.432" height="16" viewBox="0 0 12.432 16">
  <path id="Caminho_2606" data-name="Caminho 2606" d="M3991.665,1020.463a6.287,6.287,0,0,0-6.322-5.33,6.033,6.033,0,0,0-4.653,2.3,5.882,5.882,0,0,0-1.3,4.906,9.267,9.267,0,0,0,1.268,3.123,26.45,26.45,0,0,0,4.46,5.465c.291.281.49.278.787-.005a29.487,29.487,0,0,0,2.957-3.271,16.738,16.738,0,0,0,2.3-3.774A6.4,6.4,0,0,0,3991.665,1020.463Zm-2.685.947a3.476,3.476,0,1,1-3.468-3.526A3.491,3.491,0,0,1,3988.98,1021.41Z" transform="translate(-3979.288 -1015.133)" fill="#464646"/>
</svg>
