<svg width="25" height="19" viewBox="0 0 25 19" fill="none" xmlns="http://www.w3.org/2000/svg">
<path d="M24.9776 1.95389V17.048C24.9214 17.283 24.8467 17.5134 24.7546 17.7368C24.5701 18.1342 24.2703 18.4668 23.894 18.6913C23.5178 18.9158 23.0828 19.0217 22.6455 18.9953H9.55049C7.14409 18.9953 4.73753 18.9953 2.33113 18.9953C1.96418 19.0198 1.59705 18.9489 1.26562 18.7895C0.934196 18.6301 0.649672 18.3877 0.439771 18.0857C0.258987 17.755 0.111706 17.407 0 17.047V1.95292C0.0559112 1.71791 0.130276 1.48766 0.222082 1.26422C0.410015 0.864103 0.71409 0.529916 1.09479 0.305241C1.47549 0.080565 1.91491 -0.0241794 2.35602 0.004698C9.1114 0.004698 15.8675 0.004698 22.6235 0.004698C22.6715 0.004698 22.7235 0.004698 22.7695 0.004698C23.1169 -0.00327274 23.4604 0.0756632 23.7696 0.234345C24.0787 0.393027 24.3437 0.626364 24.5398 0.913281C24.7189 1.24522 24.8655 1.59373 24.9776 1.95389ZM12.4742 17.5368H22.5972C23.2529 17.5368 23.5138 17.2769 23.5138 16.6252C23.5138 11.8777 23.5138 7.12986 23.5138 2.38171C23.5138 1.72796 23.2544 1.46714 22.6006 1.46714H2.37945C1.7247 1.46714 1.46281 1.72703 1.46281 2.37878V16.6212C1.46281 17.2759 1.72328 17.5359 2.37603 17.5359L12.4742 17.5368Z" fill="#0081C5"/>
<path d="M7.73331 8.77839C7.93823 8.81938 8.14589 8.85039 8.34781 8.90237C9.30796 9.1301 10.1624 9.67661 10.7717 10.4528C11.381 11.229 11.7092 12.1889 11.7025 13.1756C11.7257 13.5881 11.6994 14.0019 11.6244 14.4082C11.5185 14.8853 11.2511 15.3112 10.8673 15.6138C10.4835 15.9163 10.0069 16.0769 9.51826 16.0685C8.04683 16.0885 6.57536 16.0915 5.10493 16.0685C4.56131 16.0763 4.03534 15.8758 3.6348 15.5082C3.23426 15.1406 2.98973 14.6336 2.95098 14.0913C2.80449 13.0965 2.96247 12.0808 3.40393 11.1775C3.71848 10.5502 4.17974 10.0084 4.74911 9.59827C5.31849 9.18816 5.97907 8.92192 6.67366 8.82232C6.73663 8.81133 6.80153 8.80237 6.8645 8.78938C6.8775 8.78938 6.88735 8.76941 6.91234 8.74642C6.14773 8.63952 5.4569 8.23361 4.99121 7.61783C4.75386 7.32248 4.58007 6.98117 4.48115 6.61541C4.38223 6.24966 4.36012 5.8674 4.41623 5.49268C4.50719 4.77305 4.86259 4.1129 5.41292 3.64037C5.96325 3.16784 6.66946 2.91663 7.39457 2.93557C8.11968 2.9545 8.81177 3.24214 9.33669 3.74275C9.86161 4.24335 10.182 4.9212 10.2353 5.6446C10.2786 6.38367 10.0471 7.11261 9.58513 7.69117C9.1232 8.26973 8.46363 8.65701 7.73331 8.77839ZM7.31501 14.6141C8.02973 14.6141 8.74448 14.6141 9.4592 14.6141C9.56312 14.6217 9.66745 14.6069 9.76523 14.5709C9.86301 14.5349 9.95217 14.4785 10.0264 14.4054C10.1006 14.3322 10.1584 14.2441 10.1957 14.1468C10.2331 14.0495 10.2492 13.9454 10.2431 13.8414C10.2431 13.5905 10.2431 13.3417 10.2431 13.0878C10.2272 12.4312 9.99109 11.799 9.57244 11.293C9.15378 10.7871 8.57685 10.4367 7.93489 10.2982C7.29293 10.1597 6.6233 10.2413 6.03328 10.5297C5.44327 10.8181 4.96732 11.2965 4.68224 11.8881C4.43324 12.4884 4.33342 13.1401 4.39134 13.7874C4.37896 13.8994 4.39189 14.0127 4.42941 14.1188C4.46694 14.225 4.52809 14.3213 4.60805 14.4006C4.68802 14.4799 4.78466 14.5401 4.89115 14.5767C4.99763 14.6133 5.11123 14.6254 5.22305 14.6121C5.91778 14.6161 6.6164 14.6151 7.31013 14.6151L7.31501 14.6141ZM7.30135 7.30789C7.59015 7.31046 7.873 7.22737 8.11451 7.06897C8.35601 6.91058 8.54504 6.68402 8.65775 6.4181C8.77047 6.15219 8.80167 5.85887 8.74756 5.57517C8.69345 5.29147 8.55684 5.03012 8.35416 4.82436C8.15148 4.6186 7.89218 4.47763 7.60933 4.41924C7.32648 4.36086 7.03252 4.38768 6.76493 4.49636C6.49735 4.60505 6.26803 4.79076 6.10601 5.02985C5.94398 5.26893 5.85643 5.55066 5.85464 5.83947C5.85614 6.22467 6.00847 6.59406 6.27879 6.86849C6.54911 7.14292 6.91621 7.30059 7.30135 7.30789Z" fill="#0081C5"/>
<path d="M17.6837 7.31089C18.8833 7.31089 20.0747 7.31089 21.2693 7.31089C21.3679 7.30435 21.4669 7.31791 21.5602 7.35079C21.6534 7.38367 21.7393 7.43513 21.812 7.5021C21.8848 7.56907 21.9429 7.65019 21.9833 7.74041C22.0238 7.83063 22.0457 7.92805 22.0473 8.02692C22.0489 8.12579 22.0301 8.224 21.9926 8.3155C21.9551 8.40701 21.8996 8.48997 21.8291 8.5593C21.7586 8.62863 21.6747 8.68286 21.5826 8.71879C21.4905 8.75472 21.392 8.77162 21.2932 8.76833C20.7404 8.77333 20.1879 8.76833 19.6351 8.76833C17.7812 8.76833 15.9276 8.76833 14.0743 8.76833C13.9503 8.7799 13.8252 8.7596 13.7112 8.70951C13.5972 8.65943 13.498 8.5812 13.4227 8.48206C13.3474 8.38293 13.2984 8.2662 13.2807 8.14296C13.263 8.01972 13.2768 7.89396 13.3212 7.77763C13.3803 7.62932 13.4857 7.50393 13.6214 7.41973C13.757 7.33554 13.9161 7.29695 14.0753 7.30979C15.2775 7.30846 16.4802 7.30889 17.6837 7.31089Z" fill="#0081C5"/>
<path d="M17.6354 11.6932C16.4358 11.6932 15.2444 11.6932 14.0498 11.6932C13.9512 11.6997 13.8522 11.6861 13.7589 11.6533C13.6657 11.6204 13.5798 11.5688 13.5071 11.5018C13.4343 11.4349 13.3762 11.3539 13.3358 11.2636C13.2953 11.1734 13.2735 11.0759 13.2718 10.977C13.2702 10.8781 13.2885 10.78 13.326 10.6885C13.3635 10.597 13.4195 10.5141 13.49 10.4447C13.5605 10.3754 13.6444 10.3211 13.7365 10.2851C13.8286 10.2492 13.9271 10.2324 14.0259 10.2357C14.5787 10.2307 15.1312 10.2357 15.684 10.2357C17.5379 10.2357 19.3915 10.2357 21.2448 10.2357C21.3688 10.2241 21.494 10.2443 21.6079 10.2944C21.7219 10.3445 21.8211 10.4228 21.8964 10.522C21.9717 10.6211 22.0207 10.7378 22.0384 10.8611C22.0562 10.9843 22.0423 11.11 21.9979 11.2263C21.9391 11.3749 21.8339 11.5006 21.6982 11.585C21.5625 11.6695 21.4031 11.708 21.2438 11.6951C20.041 11.6951 18.8382 11.6945 17.6354 11.6932Z" fill="#0081C5"/>
<path d="M17.6837 13.1545C18.8833 13.1545 20.0747 13.1545 21.2693 13.1545C21.3679 13.148 21.4669 13.1615 21.5602 13.1944C21.6534 13.2273 21.7393 13.2787 21.812 13.3457C21.8848 13.4127 21.9429 13.4938 21.9833 13.584C22.0238 13.6742 22.0457 13.7718 22.0473 13.8706C22.0489 13.9695 22.0301 14.0676 21.9926 14.1591C21.9551 14.2506 21.8996 14.3336 21.8291 14.4029C21.7586 14.4722 21.6747 14.5265 21.5826 14.5624C21.4905 14.5983 21.392 14.6152 21.2932 14.6119C20.7404 14.6169 20.1879 14.6119 19.6351 14.6119C17.7812 14.6119 15.9276 14.6119 14.0743 14.6119C13.9503 14.6235 13.8252 14.6033 13.7112 14.5532C13.5972 14.5032 13.498 14.4248 13.4227 14.3257C13.3474 14.2265 13.2984 14.1098 13.2807 13.9866C13.263 13.8633 13.2768 13.7377 13.3212 13.6214C13.3801 13.4729 13.4852 13.3471 13.6209 13.2627C13.7565 13.1783 13.916 13.1398 14.0753 13.1525C15.2775 13.1525 16.4802 13.1532 17.6837 13.1545Z" fill="#0081C5"/>
<path d="M17.6621 4.38888C18.3618 4.38888 19.0616 4.38888 19.7614 4.38888C19.8651 4.37621 19.9706 4.38586 20.0703 4.41707C20.1701 4.44827 20.2617 4.50031 20.3398 4.56984C20.4178 4.63937 20.4803 4.72473 20.5228 4.82023C20.5653 4.91573 20.5869 5.0193 20.5862 5.12382C20.5856 5.22834 20.5625 5.33147 20.5189 5.42644C20.4752 5.52141 20.4118 5.60595 20.3329 5.67451C20.254 5.74307 20.1617 5.79414 20.0615 5.82411C19.9614 5.85408 19.8557 5.86234 19.7521 5.8484C18.3526 5.8484 16.9535 5.8484 15.554 5.8484C15.4503 5.86106 15.3448 5.85141 15.2451 5.82021C15.1453 5.78901 15.0537 5.73696 14.9756 5.66744C14.8976 5.59791 14.8351 5.51255 14.7926 5.41704C14.7501 5.32154 14.7285 5.21809 14.7291 5.11357C14.7298 5.00905 14.7529 4.90581 14.7965 4.81083C14.8401 4.71586 14.9036 4.63132 14.9825 4.56276C15.0614 4.4942 15.1537 4.44325 15.2538 4.41328C15.354 4.38331 15.4592 4.37494 15.5628 4.38888C16.2685 4.38788 16.9684 4.38888 17.6621 4.38888Z" fill="#0081C5"/>
</svg>
