<svg xmlns="http://www.w3.org/2000/svg" width="16.005" height="16" viewBox="0 0 16.005 16">
  <g id="web" transform="translate(-418 -99)">
    <rect id="Retângulo_4094" data-name="Retângulo 4094" width="16" height="16" transform="translate(418 99)" fill="none"/>
    <g id="Grupo_3155" data-name="Grupo 3155" transform="translate(418 99)">
      <path id="Caminho_2401" data-name="Caminho 2401" d="M4033.6,438.374a8,8,0,1,1-7.966-8.012A7.982,7.982,0,0,1,4033.6,438.374Zm-4.974,2.118a13.525,13.525,0,0,0,0-4.254h-6.072a14.409,14.409,0,0,0,0,4.254Zm-5.855-5.338h5.653a6.955,6.955,0,0,0-1.437-2.981,2.972,2.972,0,0,0-.57-.482,1.387,1.387,0,0,0-1.6-.026,2.848,2.848,0,0,0-.567.46A6.834,6.834,0,0,0,4022.769,435.154Zm.015,6.417a6.818,6.818,0,0,0,1.385,2.948,3.369,3.369,0,0,0,.618.528,1.375,1.375,0,0,0,1.625-.009,3.63,3.63,0,0,0,.711-.644,6.04,6.04,0,0,0,1.072-2.054c.083-.249.151-.5.229-.768ZM4019,436.236a6.855,6.855,0,0,0,0,4.254h2.481a15.052,15.052,0,0,1,0-4.254Zm13.2,4.254a6.875,6.875,0,0,0,0-4.249h-2.483a15.071,15.071,0,0,1,0,4.249Zm-2.677-5.334h2.223a6.876,6.876,0,0,0-3.535-3.19A9.47,9.47,0,0,1,4029.517,435.157Zm-1.32,9.6a6.8,6.8,0,0,0,3.545-3.187c-.736,0-1.44,0-2.144.006-.037,0-.093.078-.1.129a9.171,9.171,0,0,1-1.236,2.945C4028.236,444.68,4028.217,444.717,4028.2,444.753Zm-5.2,0c-.022-.038-.043-.076-.067-.113a8.848,8.848,0,0,1-1.221-2.915c-.027-.122-.067-.161-.192-.159-.539.007-1.077,0-1.616,0h-.452A6.792,6.792,0,0,0,4023,444.75Zm-3.549-9.586c.732,0,1.431,0,2.13,0,.106,0,.107-.065.124-.137a8.994,8.994,0,0,1,1.233-2.946c.022-.034.04-.071.059-.107A6.819,6.819,0,0,0,4019.448,435.164Z" transform="translate(-4017.593 -430.362)" fill="#464646"/>
    </g>
  </g>
</svg>
