<svg xmlns="http://www.w3.org/2000/svg" width="16" height="16" viewBox="0 0 16 16">
  <g id="youtube" transform="translate(-418 -145)">
    <rect id="Retângulo_4096" data-name="Retângulo 4096" width="16" height="16" transform="translate(418 145)" fill="none"/>
    <g id="Grupo_3154" data-name="Grupo 3154" transform="translate(-1870.344 -414.756)">
      <path id="Caminho_2567" data-name="Caminho 2567" d="M2288.344,566.413c.021-.3.029-.6.063-.9.061-.526.1-1.058.216-1.574a2.474,2.474,0,0,1,2.136-1.932,29.926,29.926,0,0,1,3.8-.242c1.53-.017,3.061-.01,4.59.036a25.64,25.64,0,0,1,2.828.239,2.44,2.44,0,0,1,2.146,2.14,15.119,15.119,0,0,1,.208,2.408,25.572,25.572,0,0,1-.121,3.618,5.323,5.323,0,0,1-.231,1.159,2.4,2.4,0,0,1-2.057,1.639,28.488,28.488,0,0,1-3.8.245c-1.509.017-3.019.011-4.527-.035a27.137,27.137,0,0,1-2.89-.24,2.4,2.4,0,0,1-2.137-2.142c-.1-.636-.133-1.282-.2-1.923-.009-.092-.019-.184-.028-.276Zm8.384-3.459c-1.383.038-2.341.05-3.3.1-.8.038-1.6.1-2.4.182a1.24,1.24,0,0,0-1.227,1.122,9.577,9.577,0,0,0-.147,1.144,26,26,0,0,0-.028,3.543,15.221,15.221,0,0,0,.219,1.794,1.114,1.114,0,0,0,.877.88,2,2,0,0,0,.4.071c1.163.075,2.325.186,3.49.208,1.519.029,3.04.005,4.559-.032.821-.02,1.641-.1,2.459-.181a1.248,1.248,0,0,0,1.258-1.2,12.237,12.237,0,0,0,.156-1.552c.024-1.03.032-2.062,0-3.091a11.5,11.5,0,0,0-.216-1.762,1.1,1.1,0,0,0-.907-.886,5,5,0,0,0-.833-.123C2299.5,563.086,2297.9,563.012,2296.728,562.955Z" transform="translate(0 0)" fill="#464646"/>
      <path id="Caminho_2568" data-name="Caminho 2568" d="M2493.391,672.724l3.325,1.924a.347.347,0,0,1,0,.6l-3.325,1.924a.347.347,0,0,1-.521-.3v-3.848A.347.347,0,0,1,2493.391,672.724Z" transform="translate(-198.112 -107.442)" fill="#464646"/>
    </g>
  </g>
</svg>
