<svg xmlns="http://www.w3.org/2000/svg" width="16" height="16" viewBox="0 0 16 16">
  <g id="facebook" transform="translate(-418 -122)">
    <rect id="Retângulo_4095" data-name="Retângulo 4095" width="16" height="16" transform="translate(418 122)" fill="none"/>
    <path id="Caminho_2605" data-name="Caminho 2605" d="M171.534,1034.068c0,.057.012.114.012.17q0,1.282,0,2.564v.2h-.3c-.506,0-1.011.011-1.517,0a.756.756,0,0,0-.859.681,1.867,1.867,0,0,0-.051.418c0,.536.007,1.073.012,1.61a.655.655,0,0,0,.012.079h2.916l-.456,1.513c-.071.234-.147.467-.211.7a.165.165,0,0,1-.192.146c-.625-.006-1.251,0-1.876,0h-.189v7.924h-3.355v-7.917h-1.857V1039.8H165.5c0-.076,0-.136,0-.2q0-1.36,0-2.72a3.063,3.063,0,0,1,.3-1.408,2.49,2.49,0,0,1,1.654-1.276c.2-.055.406-.085.609-.127Z" transform="translate(258.374 -912.068)" fill="#464646"/>
  </g>
</svg>
