<svg id="Grupo_2145" data-name="Grupo 2145" xmlns="http://www.w3.org/2000/svg" width="55.759" height="22" viewBox="0 0 55.759 22">
  <path id="Caminho_1214" data-name="Caminho 1214" d="M331.116,364.5v4.9a5.865,5.865,0,0,1-.76,2.958,5.534,5.534,0,0,1-2.083,2.094,6.093,6.093,0,0,1-5.9,0,5.527,5.527,0,0,1-2.083-2.094,5.863,5.863,0,0,1-.76-2.958,5.934,5.934,0,0,1,.74-2.948,5.486,5.486,0,0,1,4.885-2.844,5.383,5.383,0,0,1,2.479.573,5.161,5.161,0,0,1,1.854,1.573v-6.51a.784.784,0,0,1,.812-.812.757.757,0,0,1,.573.229.811.811,0,0,1,.219.583v5.073A.637.637,0,0,1,331.116,364.5Zm-3.646,8.677a4.134,4.134,0,0,0,1.51-1.562,4.478,4.478,0,0,0,.552-2.219,4.739,4.739,0,0,0-.021-.521.23.23,0,0,1-.021-.1,4.184,4.184,0,0,0-1.365-2.667,4.039,4.039,0,0,0-2.8-1.042,4.216,4.216,0,0,0-2.156.563,4.033,4.033,0,0,0-1.521,1.552,4.734,4.734,0,0,0,0,4.437,4.106,4.106,0,0,0,1.521,1.563,4.155,4.155,0,0,0,2.156.573A4.1,4.1,0,0,0,327.471,373.179Z" transform="translate(-288.673 -358.429)" fill="#0081c5"/>
  <path id="Caminho_1215" data-name="Caminho 1215" d="M108.983,397.318a3.951,3.951,0,0,1,1.479,1.656,5.545,5.545,0,0,1,.531,2.49v6a.751.751,0,0,1-.792.792.81.81,0,0,1-.583-.219.755.755,0,0,1-.229-.573v-6a3.424,3.424,0,0,0-.76-2.344,2.524,2.524,0,0,0-1.99-.865,2.765,2.765,0,0,0-2.125.875,3.161,3.161,0,0,0-.792,2.292v6.042a.751.751,0,0,1-.792.792.81.81,0,0,1-.583-.219.755.755,0,0,1-.229-.573v-6a3.424,3.424,0,0,0-.76-2.344,2.525,2.525,0,0,0-1.99-.865,2.841,2.841,0,0,0-2.125.854,3,3,0,0,0-.833,2.188v6.167a.751.751,0,0,1-.792.792.81.81,0,0,1-.583-.219.755.755,0,0,1-.229-.573v-9.792a.784.784,0,0,1,.812-.813.756.756,0,0,1,.573.229.811.811,0,0,1,.219.583v.458A4.044,4.044,0,0,1,97.8,397.1a4.155,4.155,0,0,1,1.74-.365,4.1,4.1,0,0,1,2.062.521,3.873,3.873,0,0,1,1.458,1.458,4.224,4.224,0,0,1,1.573-1.458,4.524,4.524,0,0,1,2.177-.521A4.072,4.072,0,0,1,108.983,397.318Z" transform="translate(-94.806 -391.475)" fill="#0081c5"/>
  <path id="Caminho_1216" data-name="Caminho 1216" d="M419.329,406.982a5.4,5.4,0,0,1-2.073-2.073,6.271,6.271,0,0,1,0-5.948,5.384,5.384,0,0,1,2.073-2.083,6.23,6.23,0,0,1,5.927,0,5.483,5.483,0,0,1,2.073,2.083,6.232,6.232,0,0,1,.01,5.948,5.4,5.4,0,0,1-2.073,2.073,6.251,6.251,0,0,1-5.937,0Zm5.135-1.271a3.98,3.98,0,0,0,1.5-1.552,4.544,4.544,0,0,0,.542-2.219,4.59,4.59,0,0,0-.542-2.24,3.985,3.985,0,0,0-1.5-1.552,4.434,4.434,0,0,0-4.323,0,4.033,4.033,0,0,0-1.521,1.552,4.776,4.776,0,0,0,0,4.458,4.029,4.029,0,0,0,1.521,1.552,4.434,4.434,0,0,0,4.323,0Z" transform="translate(-372.33 -390.951)" fill="#0081c5"/>
  <path id="Caminho_1217" data-name="Caminho 1217" d="M226.175,406.982a5.4,5.4,0,0,1-2.073-2.073,6.271,6.271,0,0,1,0-5.948,5.384,5.384,0,0,1,2.073-2.083,6.23,6.23,0,0,1,5.927,0,5.484,5.484,0,0,1,2.073,2.083,6.232,6.232,0,0,1,.01,5.948,5.405,5.405,0,0,1-2.073,2.073,6.251,6.251,0,0,1-5.937,0Zm5.135-1.271a3.981,3.981,0,0,0,1.5-1.552,4.544,4.544,0,0,0,.542-2.219,4.59,4.59,0,0,0-.542-2.24,3.985,3.985,0,0,0-1.5-1.552,4.434,4.434,0,0,0-4.323,0,4.033,4.033,0,0,0-1.521,1.552,4.775,4.775,0,0,0,0,4.458,4.028,4.028,0,0,0,1.521,1.552,4.434,4.434,0,0,0,4.323,0Z" transform="translate(-205.7 -390.951)" fill="#0081c5"/>
  <g id="Grupo_1209" data-name="Grupo 1209" transform="translate(25.818 17.332)">
    <path id="Caminho_1218" data-name="Caminho 1218" d="M303.1,484.643a15.418,15.418,0,0,1-18.848.112,7.669,7.669,0,0,1-1.432.593,16.663,16.663,0,0,0,21.67-.083A7.641,7.641,0,0,1,303.1,484.643Z" transform="translate(-282.815 -484.643)" fill="#0081c5"/>
  </g>
</svg>
