<svg xmlns="http://www.w3.org/2000/svg" width="24.989" height="19" viewBox="0 0 24.989 19">
  <g id="profissionais" transform="translate(-4245.234 -1195.421)">
    <path id="Caminho_2405" data-name="Caminho 2405" d="M4270.223,1197.37v15.1a4.639,4.639,0,0,1-.223.689,2.181,2.181,0,0,1-2.11,1.259h-13.1q-3.611,0-7.222,0a2.131,2.131,0,0,1-1.892-.91,5.669,5.669,0,0,1-.44-1.039v-15.1a4.637,4.637,0,0,1,.222-.689,2.2,2.2,0,0,1,2.135-1.26q10.137,0,20.275,0c.048,0,.1,0,.146,0a2.087,2.087,0,0,1,1.771.909A5.854,5.854,0,0,1,4270.223,1197.37Zm-12.508,15.589h10.127c.656,0,.917-.26.917-.912q0-7.124,0-14.249c0-.654-.26-.915-.914-.915h-20.229c-.655,0-.917.26-.917.912v14.248c0,.655.261.915.914.915Z" transform="translate(0 0)" fill="#0081c5"/>
    <path id="Caminho_2406" data-name="Caminho 2406" d="M4297.823,1249.223c.205.041.413.072.615.124a4.363,4.363,0,0,1,3.356,4.275,5.186,5.186,0,0,1-.078,1.233,2.121,2.121,0,0,1-2.107,1.661c-1.472.02-2.944.023-4.415,0a2.13,2.13,0,0,1-2.155-1.978,4.985,4.985,0,0,1,.453-2.915,4.35,4.35,0,0,1,3.271-2.356c.063-.011.128-.02.191-.033.013,0,.023-.02.048-.043a2.916,2.916,0,0,1-1.922-1.129,2.745,2.745,0,0,1-.575-2.126,2.926,2.926,0,0,1,5.821.152A3,3,0,0,1,4297.823,1249.223Zm-.418,5.838c.715,0,1.43,0,2.145,0a.732.732,0,0,0,.784-.773c0-.251,0-.5,0-.754a2.927,2.927,0,0,0-5.563-1.2,4.023,4.023,0,0,0-.291,1.9.748.748,0,0,0,.832.825C4296.007,1255.063,4296.706,1255.062,4297.4,1255.062Zm-.014-7.309a1.46,1.46,0,1,0-1.447-1.469A1.475,1.475,0,0,0,4297.391,1247.752Z" transform="translate(-44.851 -45.026)" fill="#0081c5"/>
    <path id="Caminho_2407" data-name="Caminho 2407" d="M4467.248,1315.191c1.2,0,2.392,0,3.587,0a.73.73,0,1,1,.024,1.458c-.553.005-1.106,0-1.659,0q-2.782,0-5.563,0a.733.733,0,0,1-.753-.991.747.747,0,0,1,.754-.468Q4465.442,1315.188,4467.248,1315.191Z" transform="translate(-204.322 -112.462)" fill="#0081c5"/>
    <path id="Caminho_2408" data-name="Caminho 2408" d="M4467.209,1364.562c-1.2,0-2.392,0-3.587,0a.73.73,0,1,1-.024-1.458c.553-.005,1.106,0,1.659,0q2.782,0,5.563,0a.733.733,0,0,1,.753.991.746.746,0,0,1-.754.469Q4469.014,1364.564,4467.209,1364.562Z" transform="translate(-204.331 -157.449)" fill="#0081c5"/>
    <path id="Caminho_2409" data-name="Caminho 2409" d="M4467.248,1411.01c1.2,0,2.392,0,3.587,0a.73.73,0,1,1,.024,1.458c-.553.005-1.106,0-1.659,0q-2.782,0-5.563,0a.733.733,0,0,1-.753-.991.747.747,0,0,1,.754-.469Q4465.442,1411.008,4467.248,1411.01Z" transform="translate(-204.322 -202.435)" fill="#0081c5"/>
    <path id="Caminho_2410" data-name="Caminho 2410" d="M4489.794,1267.289c.7,0,1.4,0,2.1,0a.736.736,0,1,1-.009,1.46q-2.1,0-4.2,0a.736.736,0,1,1,.009-1.46C4488.4,1267.288,4489.1,1267.289,4489.794,1267.289Z" transform="translate(-226.889 -67.483)" fill="#0081c5"/>
  </g>
</svg>
