<svg xmlns="http://www.w3.org/2000/svg" width="16" height="16.008" viewBox="0 0 16 16.008">
  <g id="profile" transform="translate(-418 -28)">
    <rect id="Retângulo_4091" data-name="Retângulo 4091" width="16" height="16" transform="translate(418 28)" fill="none"/>
    <path id="Caminho_2607" data-name="Caminho 2607" d="M4427.333,809.913a7.655,7.655,0,0,0-4.437-1.782l-.039-.009-.045-.011-.026-.006h-1.012l-.017,0-.273.036c-.2.025-.4.051-.6.085a8,8,0,0,0-6.458,6.321c-.045.239-.077.482-.108.717q-.019.146-.04.292l0,.017,0,1.017,0,.016c.011.085.021.17.032.255.024.195.048.4.083.595a7.9,7.9,0,0,0,2.525,4.59,7.753,7.753,0,0,0,4.3,1.99,8.843,8.843,0,0,0,1.126.073,7.737,7.737,0,0,0,4.905-1.736,7.626,7.626,0,0,0,2.957-5.221A7.764,7.764,0,0,0,4427.333,809.913Zm-5.065,1.6h0a1.7,1.7,0,0,1-.008,3.394h-.008a1.7,1.7,0,0,1,.014-3.394Zm-3.32,6.54a4.066,4.066,0,0,1,2.79-1.657,4.2,4.2,0,0,1,.53-.034,4.12,4.12,0,0,1,4.092,3.731,5.055,5.055,0,0,1-.025.9c-.006.08-.013.16-.019.24a.183.183,0,0,1-.049.062,6.518,6.518,0,0,1-8,0,.174.174,0,0,1-.053-.081A4.07,4.07,0,0,1,4418.948,818.053Zm6.46-5.086a3.055,3.055,0,0,0-1.08-2.141,3.154,3.154,0,0,0-4.345,4.564,5.552,5.552,0,0,0-3.231,4.257,6.572,6.572,0,0,1,5.042-10.072c.156-.011.313-.017.469-.017a6.57,6.57,0,0,1,5.516,10.085,5.415,5.415,0,0,0-1-2.439,5.6,5.6,0,0,0-2.236-1.815A3.086,3.086,0,0,0,4425.408,812.968Z" transform="translate(-3996.272 -780.106)" fill="#464646"/>
  </g>
</svg>
